<?xml version="1.0" encoding="UTF-8"?>
<svg width="241px" height="104px" viewBox="0 0 241 104" version="1.1" xmlns="http://www.w3.org/2000/svg" xmlns:xlink="http://www.w3.org/1999/xlink">
    <!-- Generator: Sketch 63.1 (92452) - https://sketch.com -->
    <title>Group 50</title>
    <desc>Created with Sketch.</desc>
    <defs>
        <polygon id="path-1" points="0 103.1 240.457 103.1 240.457 -1.42108547e-14 0 -1.42108547e-14"></polygon>
    </defs>
    <g id="Page-1" stroke="none" stroke-width="1" fill="none" fill-rule="evenodd">
        <g id="Group-50">
            <path d="M187.1945,-1.42108547e-14 C187.1945,-1.42108547e-14 187.9625,18.149 170.9015,20.55 L170.9015,-1.42108547e-14 L187.1945,-1.42108547e-14 Z" id="Fill-1" fill="#99BB1F"></path>
            <path d="M67.0656,103.0996 L49.4926,103.0996 L49.4926,46.7646 C49.4926,44.5566 49.0766,42.5076 48.2126,40.5556 C47.3796,38.6026 46.2286,36.9376 44.7876,35.4976 C43.3476,34.0576 41.6506,32.9366 39.7306,32.0726 C37.8096,31.2406 35.7296,30.7926 33.5206,30.7926 C31.3116,30.7926 29.2636,31.2086 27.3106,32.0086 C25.3576,32.8086 23.6936,33.9296 22.2536,35.3696 C20.8136,36.8096 19.6926,38.4746 18.8286,40.3626 C17.9646,42.2516 17.5476,44.2996 17.5476,46.5086 C17.5476,48.7176 17.9646,50.7656 18.7646,52.7186 C19.5646,54.6706 20.6856,56.3346 22.1256,57.7756 C23.5656,59.2156 25.2306,60.3356 27.1186,61.2006 C29.0076,62.0336 31.0556,62.4496 33.2646,62.4496 C37.0736,62.4496 40.2746,61.3926 42.8666,59.2806 L42.8666,78.8696 C39.6666,79.7976 36.3696,80.2456 33.0086,80.2456 C28.4626,80.2456 24.1416,79.3496 20.1086,77.5886 C16.0756,75.8286 12.5546,73.3956 9.5456,70.3236 C6.5686,67.2496 4.2006,63.6646 2.4716,59.5686 C0.7436,55.4706 -0.0884,51.1176 0.0076,46.4766 C0.0076,41.8356 0.9036,37.5146 2.6646,33.4496 C4.4246,29.4156 6.8256,25.8626 9.8656,22.8226 C12.9066,19.7816 16.4276,17.4126 20.4926,15.6836 C24.5256,13.9556 28.8786,13.0916 33.5206,13.0916 C38.1616,13.0916 42.5146,13.9876 46.6116,15.7476 C50.7096,17.5086 54.2626,19.9096 57.3026,22.9506 C60.3436,25.9916 62.7126,29.5436 64.4406,33.6416 C66.1696,37.7386 67.0336,42.0916 67.0336,46.7326 L67.0336,103.0996 L67.0656,103.0996 Z" id="Fill-3" fill="#D42321"></path>
            <path d="M168.7248,43.0835 C168.7248,43.5955 168.7568,44.1405 168.7888,44.7165 C168.8218,45.2925 168.8538,45.9005 168.8538,46.4765 L168.8538,80.2465 L151.0248,80.2465 L151.0248,46.8605 C151.0248,44.7485 150.7368,42.7315 150.1928,40.7795 C149.6478,38.8265 148.8478,37.1295 147.7908,35.6575 C146.7358,34.1855 145.4548,33.0335 143.9178,32.1685 C142.3818,31.3365 140.6858,30.8885 138.7338,30.8885 C135.2768,30.8885 132.5868,32.3285 130.6348,35.1775 C128.6828,38.0585 127.6898,41.8035 127.5938,46.4445 L127.5938,80.2135 L110.0208,80.2135 L110.0208,46.8605 C110.0208,42.0595 109.0608,38.1865 107.1088,35.2735 C105.1558,32.3605 102.4348,30.9205 98.8828,30.9205 C97.0258,30.9205 95.3288,31.3365 93.8248,32.2005 C92.3208,33.0335 91.0078,34.1855 89.9198,35.6255 C88.8318,37.0655 87.9678,38.7625 87.3918,40.6835 C86.8148,42.6355 86.4948,44.6525 86.4948,46.7645 L86.4948,80.2775 L69.0498,80.2775 L69.0498,46.4765 C69.0498,41.8355 69.7868,37.5145 71.2588,33.4495 C72.7308,29.4165 74.8118,25.8625 77.4688,22.8225 C80.1248,19.7815 83.3258,17.4125 87.0708,15.6845 C90.8158,13.9555 94.9768,13.0915 99.5228,13.0915 C103.0758,13.0915 106.4688,13.9235 109.7018,15.5565 C112.9338,17.1885 115.9748,19.1095 118.7598,21.3175 C121.4488,19.1415 124.3928,17.2205 127.6258,15.5565 C130.8278,13.9235 134.3798,13.0915 138.2528,13.0915 C142.5418,13.0915 146.4798,13.8595 150.0648,15.3645 C153.6498,16.8685 156.7538,18.9805 159.3468,21.7015 C161.9718,24.3905 164.0518,27.5915 165.6848,31.2405 C167.3168,34.9215 168.3088,38.8585 168.7248,43.0835" id="Fill-5" fill="#D42321"></path>
            <path d="M223.3322,30.7925 C221.1232,30.7925 219.0752,31.2085 217.1222,32.0725 C215.1702,32.9045 213.5052,34.0575 212.0642,35.4975 C210.6242,36.9385 209.5042,38.6025 208.7042,40.5555 C207.9032,42.5075 207.4872,44.5565 207.4872,46.7645 C207.4872,48.9735 207.9032,51.0215 208.7362,52.9745 C209.5682,54.9265 210.7212,56.5915 212.1612,58.0325 C213.6022,59.4715 215.2662,60.5925 217.1542,61.3925 C219.0432,62.1935 221.0912,62.6095 223.3002,62.6095 L239.2402,62.6095 L239.2402,80.3095 L223.3002,80.3095 C218.6582,80.3095 214.3062,79.4455 210.2722,77.7165 C206.2072,75.9885 202.6862,73.6205 199.6452,70.5795 C196.6042,67.5385 194.2042,63.9855 192.4432,59.8885 C190.6832,55.7915 189.7872,51.4385 189.7872,46.7965 C189.7872,42.1555 190.6512,37.8025 192.3802,33.7055 C194.1082,29.6075 196.4772,26.0555 199.5182,23.0145 C202.5592,19.9735 206.1112,17.5725 210.2082,15.8125 C214.3062,14.0515 218.6582,13.1555 223.3002,13.1555 L239.2402,13.1555 L239.2402,30.8565 L223.3322,30.8565 L223.3322,30.7925 Z" id="Fill-7" fill="#D42321"></path>
            <path d="M187.9621,7.7783 L187.9621,80.2463 L170.9011,80.2463 L170.9011,24.1343 C179.7691,23.5263 186.9061,16.6123 187.9621,7.7783" id="Fill-9" fill="#D42321"></path>
            <path d="M75.3557,93.625 C75.7397,93.241 76.0607,92.761 76.2517,92.185 C76.4437,91.609 76.5407,91.001 76.5407,90.328 C76.5407,89.624 76.4437,89.017 76.2517,88.504 C76.0607,87.992 75.8357,87.544 75.5157,87.191 C75.1957,86.84 74.8437,86.584 74.4277,86.392 C74.0117,86.231 73.5317,86.136 73.0517,86.136 C72.4427,86.136 71.9307,86.264 71.5147,86.487 C71.0667,86.712 70.7147,87.031 70.4267,87.416 C70.1387,87.8 69.9467,88.248 69.8187,88.76 C69.6897,89.272 69.6267,89.784 69.6267,90.328 C69.6267,90.873 69.6897,91.417 69.8187,91.929 C69.9467,92.441 70.1707,92.857 70.4587,93.241 C70.7467,93.625 71.0987,93.913 71.5467,94.138 C71.9947,94.361 72.5067,94.489 73.1157,94.489 C73.4357,94.489 73.7557,94.458 74.0117,94.361 C74.2677,94.298 74.5237,94.17 74.7477,94.073 L73.6917,93.273 L74.1717,92.665 L75.3557,93.625 Z M77.2447,95.065 L76.7647,95.674 L75.3877,94.618 C75.0677,94.81 74.7157,94.97 74.3317,95.098 C73.9477,95.194 73.5317,95.258 73.0517,95.258 C72.3467,95.258 71.7067,95.13 71.1627,94.874 C70.6187,94.618 70.1707,94.266 69.7867,93.817 C69.4347,93.369 69.1467,92.857 68.9547,92.249 C68.7617,91.641 68.6667,91.033 68.6667,90.328 C68.6667,89.688 68.7617,89.048 68.9217,88.472 C69.1147,87.864 69.3707,87.352 69.7227,86.903 C70.0747,86.455 70.5227,86.071 71.0667,85.815 C71.6107,85.56 72.2517,85.399 72.9557,85.399 C73.6277,85.399 74.2037,85.495 74.7477,85.72 C75.2917,85.943 75.7397,86.264 76.1247,86.68 C76.5077,87.096 76.7957,87.607 77.0207,88.216 C77.2447,88.824 77.3407,89.528 77.3407,90.328 C77.3407,91.097 77.2127,91.801 76.9887,92.441 C76.7647,93.081 76.4127,93.657 75.9317,94.105 L77.2447,95.065 Z" id="Fill-11" fill="#3E3D3C"></path>
            <path d="M82.8781,91.4492 C82.5581,91.5772 82.2061,91.6732 81.8851,91.7372 C81.5331,91.7682 81.2131,91.8332 80.8611,91.8332 C80.2531,91.8652 79.8051,92.0252 79.4531,92.2492 C79.1331,92.4722 78.9411,92.8252 78.9411,93.2732 C78.9411,93.4662 78.9731,93.6572 79.0691,93.8172 C79.1651,93.9772 79.2611,94.1052 79.3891,94.2012 C79.5171,94.2982 79.6771,94.3612 79.8691,94.4262 C80.0611,94.4582 80.2211,94.4892 80.4131,94.4892 C80.7331,94.4892 81.0221,94.4582 81.3101,94.3612 C81.5971,94.2982 81.8541,94.1702 82.0781,94.0102 C82.3021,93.8492 82.4941,93.6572 82.6221,93.4012 C82.7501,93.1452 82.8141,92.8572 82.8141,92.5372 L82.8781,91.4492 Z M81.5331,91.0642 C81.6931,91.0332 81.8541,91.0332 82.0451,91.0012 C82.2381,90.9692 82.4301,90.9042 82.5581,90.8732 C82.6861,90.8082 82.7501,90.7132 82.7821,90.5532 C82.8141,90.4252 82.8141,90.2642 82.8141,90.1692 C82.8141,89.7522 82.6861,89.4322 82.4301,89.1762 C82.1731,88.9202 81.7571,88.7922 81.1491,88.7922 C80.8931,88.7922 80.6371,88.8242 80.4131,88.8562 C80.1891,88.9202 79.9971,88.9842 79.8051,89.1122 C79.6451,89.2402 79.5171,89.4002 79.3891,89.5932 C79.2931,89.7842 79.1971,90.0402 79.1651,90.3282 L78.3651,90.3282 C78.3971,89.9442 78.4931,89.5932 78.6211,89.3042 C78.7811,89.0162 78.9731,88.7922 79.2291,88.5992 C79.4851,88.4082 79.7731,88.2802 80.0931,88.2162 C80.4131,88.1202 80.7651,88.0882 81.1171,88.0882 C81.4691,88.0882 81.7901,88.1202 82.0781,88.1832 C82.3661,88.2482 82.6221,88.3762 82.8461,88.5362 C83.0701,88.6962 83.2301,88.9202 83.3581,89.1762 C83.4861,89.4322 83.5501,89.7842 83.5501,90.1692 L83.5501,93.8172 C83.5501,94.1372 83.6141,94.3302 83.7101,94.3932 C83.8061,94.4892 84.0301,94.4582 84.3821,94.3292 L84.3821,94.9372 C84.3181,94.9372 84.2221,94.9702 84.1261,95.0022 C83.9981,95.0342 83.9021,95.0652 83.7741,95.0652 C83.6461,95.0652 83.5181,95.0652 83.4221,95.0342 C83.2941,95.0022 83.1981,94.9702 83.1021,94.9052 C83.0381,94.8422 82.9741,94.7462 82.9101,94.6812 C82.8461,94.5862 82.8141,94.4892 82.8141,94.3932 C82.7821,94.2982 82.7821,94.1702 82.7821,94.0422 C82.4611,94.3932 82.0781,94.6812 81.6621,94.8742 C81.2451,95.0652 80.7651,95.1622 80.2851,95.1622 C79.9971,95.1622 79.7091,95.1302 79.4211,95.0342 C79.1331,94.9702 78.9091,94.8422 78.6851,94.6812 C78.4931,94.5212 78.3001,94.3292 78.2051,94.0732 C78.0771,93.8492 78.0131,93.5612 78.0131,93.2092 C78.0131,92.0562 78.7811,91.3852 80.3491,91.1612 L81.5331,91.0642 Z" id="Fill-13" fill="#3E3D3C"></path>
            <path d="M87.3913,95.0019 C87.2953,95.0339 87.1673,95.0339 87.0073,95.0979 C86.8473,95.1299 86.6873,95.1619 86.4953,95.1619 C86.1113,95.1619 85.8233,95.0649 85.5993,94.8739 C85.4063,94.6819 85.2783,94.3299 85.2783,93.8169 L85.2783,88.8879 L84.3183,88.8879 L84.3183,88.2479 L85.2783,88.2479 L85.2783,86.3589 L86.0463,86.3589 L86.0463,88.2479 L87.2953,88.2479 L87.2953,88.8879 L86.0463,88.8879 L86.0463,93.4969 L86.0463,93.9449 C86.0463,94.0729 86.0793,94.1699 86.1113,94.2329 C86.1423,94.3299 86.2063,94.3609 86.3033,94.3939 C86.3993,94.4259 86.5273,94.4579 86.6873,94.4579 C86.7833,94.4579 86.8793,94.4579 87.0073,94.4259 C87.1033,94.3939 87.2313,94.3939 87.3273,94.3609 L87.3273,95.0019 L87.3913,95.0019 Z" id="Fill-15" fill="#3E3D3C"></path>
            <path d="M92.4167,91.4492 C92.0967,91.5772 91.7447,91.6732 91.4247,91.7372 C91.0717,91.7682 90.7517,91.8332 90.3997,91.8332 C89.7917,91.8652 89.3437,92.0252 88.9917,92.2492 C88.6717,92.4722 88.4797,92.8252 88.4797,93.2732 C88.4797,93.4972 88.5117,93.6572 88.6077,93.8172 C88.7037,93.9772 88.7997,94.1052 88.9277,94.2012 C89.0557,94.2982 89.2157,94.3612 89.4077,94.4262 C89.5677,94.4582 89.7597,94.4892 89.9517,94.4892 C90.2717,94.4892 90.5607,94.4582 90.8487,94.3612 C91.1367,94.2982 91.3927,94.1702 91.6167,94.0102 C91.8407,93.8492 92.0327,93.6572 92.1607,93.4012 C92.2887,93.1452 92.3527,92.8572 92.3527,92.5372 L92.3527,91.4492 L92.4167,91.4492 Z M91.0717,91.0332 C91.2317,91.0332 91.3927,91.0012 91.5837,90.9692 C91.7767,90.9362 91.9687,90.8732 92.0967,90.8082 C92.2247,90.7452 92.3207,90.6482 92.3527,90.5202 C92.3847,90.3602 92.3847,90.2322 92.3847,90.1372 C92.3847,89.7522 92.2567,89.4002 91.9997,89.1442 C91.7447,88.8872 91.3287,88.7602 90.7197,88.7602 C90.4637,88.7602 90.2077,88.7922 89.9837,88.8242 C89.7597,88.8562 89.5677,88.9522 89.4077,89.0802 C89.2477,89.2082 89.0877,89.3362 88.9917,89.5602 C88.8957,89.7522 88.7997,90.0092 88.7677,90.2972 L87.9677,90.2972 C87.9997,89.9122 88.0957,89.5602 88.2557,89.2722 C88.4157,88.9842 88.6077,88.7602 88.8637,88.5682 C89.1197,88.3762 89.4077,88.2482 89.7277,88.1832 C90.0477,88.0882 90.3997,88.0552 90.7517,88.0552 C91.1047,88.0552 91.3927,88.0882 91.7127,88.1522 C91.9997,88.2162 92.2567,88.3442 92.4807,88.5042 C92.7047,88.6642 92.8647,88.8872 92.9927,89.1442 C93.1207,89.4002 93.1847,89.7522 93.1847,90.1372 L93.1847,93.8172 C93.1847,94.1372 93.2487,94.3302 93.3447,94.3932 C93.4407,94.4892 93.6647,94.4582 94.0167,94.3292 L94.0167,94.9372 C93.9527,94.9702 93.8567,94.9702 93.7607,95.0022 C93.6327,95.0342 93.5367,95.0652 93.4087,95.0652 C93.2807,95.0652 93.1847,95.0652 93.0567,95.0342 C92.9287,95.0022 92.8327,94.9702 92.7367,94.9052 C92.6407,94.8422 92.6087,94.7462 92.5447,94.6812 C92.4807,94.5862 92.4487,94.4892 92.4487,94.3932 C92.4487,94.2982 92.4167,94.1702 92.4167,94.0422 C92.0967,94.3932 91.7127,94.6812 91.2957,94.8742 C90.8797,95.0652 90.3997,95.1622 89.9197,95.1622 C89.6317,95.1622 89.3437,95.1302 89.0557,95.0342 C88.7997,94.9702 88.5437,94.8422 88.3197,94.6812 C88.0957,94.5212 87.9357,94.3292 87.8397,94.0732 C87.7107,93.8492 87.6467,93.5612 87.6467,93.2092 C87.6467,92.0562 88.4157,91.3852 89.9837,91.1612 L91.0717,91.0332 Z" id="Fill-17" fill="#3E3D3C"></path>
            <path d="M95.3933,94.9697 L94.6253,94.9697 L94.6253,88.2477 L95.3933,88.2477 L95.3933,89.4957 L95.4253,89.4957 C95.6493,88.9517 95.9053,88.5997 96.2573,88.3757 C96.6093,88.1527 97.0583,88.0557 97.6013,88.0557 L97.6013,88.8877 C97.1543,88.8877 96.8023,88.9517 96.5143,89.0797 C96.2263,89.2407 96.0013,89.4327 95.8413,89.6887 C95.6813,89.9447 95.5533,90.2327 95.4893,90.5847 C95.4253,90.9367 95.3933,91.2887 95.3933,91.6407 L95.3933,94.9697 Z" id="Fill-19" fill="#3E3D3C"></path>
            <polygon id="Fill-21" fill="#3E3D3C" points="101.2829 94.9697 101.2509 85.6227 102.5949 85.6227 105.6679 93.8817 105.6999 93.8817 108.7089 85.6227 110.0539 85.6227 110.0849 94.9697 109.2209 94.9697 109.2209 86.6157 109.1889 86.6157 106.1479 94.9697 105.3159 94.9697 102.2109 86.6157 102.1789 86.6157 102.1789 94.9697"></polygon>
            <path d="M116.3591,91.5771 C116.3591,91.1921 116.3271,90.8081 116.2311,90.4571 C116.1351,90.1041 116.0071,89.8161 115.8151,89.5601 C115.6231,89.3051 115.3991,89.1121 115.1101,88.9521 C114.8221,88.7921 114.4701,88.7281 114.0541,88.7281 C113.6381,88.7281 113.2861,88.8241 112.9981,88.9841 C112.7101,89.1441 112.4861,89.3681 112.2941,89.6241 C112.1021,89.8811 111.9741,90.2001 111.8781,90.5201 C111.7821,90.8731 111.7501,91.2241 111.7501,91.5771 C111.7501,91.9931 111.8141,92.3771 111.9101,92.7291 C112.0061,93.0811 112.1661,93.3691 112.3581,93.6251 C112.5501,93.8821 112.7741,94.0731 113.0621,94.2011 C113.3501,94.3301 113.6701,94.3931 114.0541,94.3931 C114.4701,94.3931 114.8221,94.2981 115.1101,94.1381 C115.3991,93.9771 115.6231,93.7541 115.8151,93.4971 C116.0071,93.2411 116.1351,92.9211 116.2311,92.6011 C116.2951,92.2811 116.3591,91.9291 116.3591,91.5771 M114.0541,95.1301 C113.6061,95.1301 113.2221,95.0341 112.8381,94.9061 C112.4541,94.7461 112.1341,94.5211 111.8461,94.2331 C111.5581,93.9451 111.3341,93.5611 111.1731,93.1451 C111.0131,92.6971 110.9181,92.1841 110.9181,91.6091 C110.9181,91.1291 110.9821,90.6481 111.1091,90.2321 C111.2371,89.8161 111.4301,89.4321 111.6861,89.1121 C111.9421,88.7921 112.2621,88.5361 112.6461,88.3441 C113.0301,88.1521 113.4781,88.0561 114.0221,88.0561 C114.5341,88.0561 115.0151,88.1521 115.3991,88.3441 C115.7831,88.5361 116.1031,88.7921 116.3591,89.1121 C116.6151,89.4321 116.8071,89.7841 116.9351,90.2321 C117.0631,90.6811 117.1271,91.1291 117.1271,91.6091 C117.1271,92.1531 117.0631,92.6331 116.9031,93.0491 C116.7431,93.4971 116.5511,93.8491 116.2631,94.1701 C115.9751,94.4891 115.6551,94.7141 115.2711,94.9061 C114.9511,95.0341 114.5341,95.1301 114.0541,95.1301" id="Fill-23" fill="#3E3D3C"></path>
            <path d="M118.8239,91.5449 C118.8239,91.9609 118.8879,92.3449 118.9839,92.6969 C119.0799,93.0489 119.2399,93.3369 119.4319,93.5939 C119.6239,93.8499 119.8479,94.0419 120.1359,94.2009 C120.4239,94.3609 120.7439,94.4259 121.0959,94.4259 C121.4159,94.4259 121.7369,94.3609 122.0249,94.2329 C122.3129,94.1059 122.5359,93.9449 122.7609,93.7219 C122.9529,93.4969 123.1449,93.2089 123.2409,92.8899 C123.3689,92.5689 123.4009,92.1849 123.4009,91.7689 C123.4009,91.3529 123.3689,90.9369 123.3049,90.5849 C123.2089,90.2329 123.0809,89.8809 122.8889,89.6239 C122.6969,89.3359 122.4409,89.1119 122.1529,88.9839 C121.8649,88.8239 121.5129,88.7289 121.0959,88.7289 C120.7439,88.7289 120.4239,88.7919 120.1359,88.9519 C119.8479,89.1119 119.6239,89.3049 119.4319,89.5609 C119.2399,89.8159 119.0799,90.1049 118.9839,90.4569 C118.8879,90.7759 118.8239,91.1609 118.8239,91.5449 L118.8239,91.5449 Z M118.8239,94.9379 L118.0549,94.9379 L118.0549,85.5909 L118.8239,85.5909 L118.8239,89.3049 C119.0799,88.8879 119.4319,88.5679 119.8479,88.3439 C120.2959,88.1199 120.7439,88.0239 121.2249,88.0239 C121.7369,88.0239 122.1849,88.1199 122.5689,88.3119 C122.9529,88.5039 123.2729,88.7599 123.4969,89.0799 C123.7529,89.3999 123.9459,89.7839 124.0409,90.1999 C124.1689,90.6159 124.2339,91.0969 124.2339,91.5449 C124.2339,92.0249 124.1689,92.5049 124.0739,92.9529 C123.9769,93.3689 123.7849,93.7539 123.5289,94.0729 C123.2729,94.3939 122.9849,94.6489 122.6009,94.8099 C122.2169,95.0019 121.7689,95.0979 121.2249,95.0979 C120.9999,95.0979 120.7769,95.0659 120.5519,95.0019 C120.3279,94.9379 120.1039,94.8739 119.8799,94.7459 C119.6559,94.6489 119.4639,94.4889 119.3039,94.3299 C119.1119,94.1699 118.9839,93.9779 118.8559,93.7539 L118.8239,93.7539 L118.8239,94.9379 Z" id="Fill-25" fill="#3E3D3C"></path>
            <mask id="mask-2" fill="white">
                <use xlink:href="#path-1"></use>
            </mask>
            <g id="Clip-28"></g>
            <path d="M125.386,94.907 L126.154,94.907 L126.154,88.184 L125.386,88.184 L125.386,94.907 Z M125.322,86.712 L126.186,86.712 L126.186,85.56 L125.322,85.56 L125.322,86.712 Z" id="Fill-27" fill="#3E3D3C" mask="url(#mask-2)"></path>
            <polygon id="Fill-29" fill="#3E3D3C" mask="url(#mask-2)" points="127.6262 94.9062 127.5942 85.5592 128.3622 85.5592 128.3622 94.9062"></polygon>
            <path d="M129.835,94.907 L130.603,94.907 L130.603,88.184 L129.835,88.184 L129.835,94.907 Z M129.803,86.712 L130.667,86.712 L130.667,85.56 L129.803,85.56 L129.803,86.712 Z" id="Fill-30" fill="#3E3D3C" mask="url(#mask-2)"></path>
            <path d="M134.3156,94.9062 C134.2196,94.9372 134.0916,94.9692 133.9316,95.0022 C133.7716,95.0342 133.6116,95.0652 133.4196,95.0652 C133.0356,95.0652 132.7476,94.9692 132.5236,94.7772 C132.3316,94.5862 132.2036,94.2332 132.2036,93.7212 L132.2036,88.7922 L131.2436,88.7922 L131.2436,88.1522 L132.2036,88.1522 L132.2036,86.2962 L132.9716,86.2962 L132.9716,88.1522 L134.2196,88.1522 L134.2196,88.7922 L132.9716,88.7922 L132.9716,93.4012 C132.9716,93.5612 132.9716,93.7212 133.0036,93.8172 C133.0036,93.9452 133.0356,94.0422 133.0676,94.1052 C133.0996,94.1702 133.1636,94.2332 133.2596,94.2652 C133.3556,94.2982 133.4836,94.3302 133.6436,94.3302 C133.7396,94.3302 133.8676,94.3302 133.9636,94.2982 C134.0596,94.2652 134.1876,94.2652 134.2846,94.2332 L134.2846,94.9062 L134.3156,94.9062 Z" id="Fill-31" fill="#3E3D3C" mask="url(#mask-2)"></path>
            <path d="M134.8918,96.7305 C134.9888,96.7625 135.1168,96.7625 135.2118,96.7935 C135.3078,96.7935 135.4368,96.8265 135.5328,96.8265 C135.7558,96.8265 135.9158,96.7625 136.0768,96.6025 C136.2038,96.4745 136.3318,96.3145 136.4288,96.0895 C136.5248,95.8985 136.5878,95.7065 136.6528,95.4825 C136.7168,95.2575 136.7808,95.0975 136.8448,94.9375 L134.2198,88.1835 L135.0838,88.1835 L137.2608,93.9775 L139.4058,88.1835 L140.2378,88.1835 L137.7408,94.8415 C137.5808,95.2575 137.4528,95.6415 137.2928,95.9945 C137.1638,96.3455 137.0048,96.6335 136.8448,96.8585 C136.6848,97.1145 136.5248,97.2745 136.2998,97.4025 C136.1088,97.5305 135.8838,97.5945 135.5958,97.5945 C135.4678,97.5945 135.3078,97.5945 135.1798,97.5625 C135.0518,97.5305 134.9558,97.5305 134.8288,97.4985 L134.8288,96.7305 L134.8918,96.7305 Z" id="Fill-32" fill="#3E3D3C" mask="url(#mask-2)"></path>
            <polygon id="Fill-33" fill="#3E3D3C" mask="url(#mask-2)" points="144.175 94.874 145.071 94.874 145.071 85.527 144.175 85.527"></polygon>
            <path d="M147.4719,94.874 L146.7029,94.874 L146.7029,88.152 L147.4719,88.152 L147.4719,89.08 C147.7909,88.76 148.1119,88.472 148.4319,88.28 C148.7519,88.056 149.1679,87.96 149.6479,87.96 C150.0649,87.96 150.4489,88.023 150.7999,88.184 C151.1529,88.344 151.4729,88.568 151.6969,88.92 C151.8569,89.145 151.9519,89.4 151.9849,89.656 C152.0169,89.912 152.0169,90.169 152.0169,90.457 L152.0169,94.874 L151.2479,94.874 L151.2479,90.488 C151.2479,89.881 151.1199,89.433 150.8319,89.112 C150.5759,88.824 150.1279,88.664 149.4889,88.664 C149.2319,88.664 149.0399,88.696 148.8159,88.792 C148.6239,88.856 148.4319,88.952 148.2719,89.08 C148.1119,89.208 147.9839,89.336 147.8559,89.496 C147.7599,89.656 147.6629,89.816 147.5999,89.977 C147.5349,90.2 147.4719,90.393 147.4719,90.616 C147.4399,90.809 147.4399,91.032 147.4399,91.257 L147.4719,94.874 Z" id="Fill-34" fill="#3E3D3C" mask="url(#mask-2)"></path>
            <path d="M154.0656,94.874 L153.2966,94.874 L153.2966,88.152 L154.0656,88.152 L154.0656,89.08 C154.3846,88.76 154.7056,88.472 155.0256,88.28 C155.3456,88.088 155.7616,87.96 156.2106,87.96 C156.6266,87.96 157.0096,88.023 157.3626,88.184 C157.7136,88.312 158.0346,88.568 158.2576,88.92 C158.4186,89.176 158.5146,89.4 158.5456,89.656 C158.5786,89.912 158.6106,90.169 158.6106,90.457 L158.6106,94.874 L157.8416,94.874 L157.8416,90.488 C157.8416,89.881 157.7136,89.433 157.4256,89.112 C157.1696,88.824 156.7216,88.664 156.0826,88.664 C155.8256,88.664 155.6336,88.696 155.4096,88.792 C155.2176,88.856 155.0256,88.952 154.8656,89.08 C154.7056,89.208 154.5776,89.336 154.4496,89.496 C154.3216,89.656 154.2566,89.816 154.1936,89.977 C154.1286,90.2 154.0656,90.393 154.0656,90.616 C154.0336,90.809 154.0336,91.032 154.0336,91.257 L154.0656,94.874 Z" id="Fill-35" fill="#3E3D3C" mask="url(#mask-2)"></path>
            <path d="M164.8205,91.4805 C164.8205,91.0645 164.7885,90.7125 164.6925,90.3605 C164.5955,90.0085 164.4675,89.7205 164.2755,89.4635 C164.0845,89.2085 163.8595,89.0165 163.5715,88.8565 C163.2835,88.6965 162.9315,88.6315 162.5155,88.6315 C162.0995,88.6315 161.7475,88.7285 161.4595,88.8565 C161.1715,89.0165 160.9475,89.2405 160.7555,89.4965 C160.5625,89.7515 160.4345,90.0725 160.3715,90.3925 C160.2745,90.7455 160.2435,91.0965 160.2435,91.4495 C160.2435,91.8655 160.3065,92.2495 160.4025,92.6015 C160.4995,92.9535 160.6595,93.2415 160.8505,93.4975 C161.0435,93.7535 161.2665,93.9455 161.5545,94.0735 C161.8425,94.2015 162.1635,94.2655 162.5485,94.2655 C162.9645,94.2655 163.2835,94.1695 163.6035,94.0095 C163.8915,93.8495 164.1165,93.6255 164.3075,93.3695 C164.5005,93.1135 164.6285,92.7925 164.7235,92.4725 C164.7565,92.1845 164.8205,91.8335 164.8205,91.4805 M162.5155,95.0345 C162.0675,95.0345 161.6835,94.9375 161.2995,94.8095 C160.9155,94.6495 160.5945,94.4585 160.3065,94.1375 C160.0185,93.8495 159.7955,93.4655 159.6345,93.0485 C159.4745,92.6015 159.3795,92.0885 159.3795,91.5125 C159.3795,91.0335 159.4425,90.5525 159.5705,90.1365 C159.6985,89.7205 159.8905,89.3355 160.1465,89.0165 C160.4025,88.6965 160.7225,88.4405 161.1075,88.2485 C161.4915,88.0555 161.9395,87.9595 162.4515,87.9595 C162.9955,87.9595 163.4435,88.0555 163.8285,88.2485 C164.2125,88.4405 164.5325,88.6965 164.8205,88.9845 C165.0765,89.3045 165.2685,89.6885 165.3965,90.1045 C165.5245,90.5205 165.5885,91.0015 165.5885,91.4805 C165.5885,92.0255 165.5245,92.5045 165.3645,92.9535 C165.2045,93.3695 165.0115,93.7535 164.7235,94.0735 C164.4675,94.3935 164.1165,94.6185 163.7315,94.8095 C163.4125,94.9375 162.9955,95.0345 162.5155,95.0345" id="Fill-36" fill="#3E3D3C" mask="url(#mask-2)"></path>
            <polygon id="Fill-37" fill="#3E3D3C" mask="url(#mask-2)" points="165.6848 88.1201 166.5168 88.1201 168.7248 93.8821 170.9018 88.1201 171.7348 88.1201 169.1418 94.8741 168.2778 94.8741"></polygon>
            <path d="M176.6633,91.2891 C176.3433,91.4171 175.9913,91.5131 175.6713,91.5771 C175.3193,91.6091 174.9993,91.6731 174.6463,91.6731 C174.0383,91.7051 173.5913,91.8651 173.2383,92.0891 C172.9183,92.3131 172.7263,92.6651 172.7263,93.1131 C172.7263,93.3371 172.7583,93.4971 172.8543,93.6571 C172.9503,93.8171 173.0463,93.9451 173.1743,94.0421 C173.3033,94.1381 173.4623,94.2011 173.6543,94.2661 C173.8473,94.3301 174.0073,94.3301 174.1983,94.3301 C174.5183,94.3301 174.8073,94.2981 175.0953,94.2011 C175.3833,94.1381 175.6393,94.0101 175.8953,93.8501 C176.1193,93.6891 176.3113,93.4971 176.4393,93.2411 C176.5673,92.9851 176.6633,92.6971 176.6633,92.3771 L176.6633,91.2891 Z M175.3513,90.9041 C175.5113,90.8731 175.6713,90.8731 175.8943,90.8411 C176.0873,90.8091 176.2793,90.7451 176.4073,90.7131 C176.5353,90.6481 176.6003,90.5531 176.6313,90.3931 C176.6633,90.2651 176.6633,90.1041 176.6633,90.0091 C176.6633,89.6241 176.5353,89.2721 176.2793,89.0171 C176.0233,88.7601 175.6063,88.6321 174.9993,88.6321 C174.7433,88.6321 174.4863,88.6641 174.2633,88.6961 C174.0383,88.7281 173.8473,88.8241 173.6863,88.9521 C173.5263,89.0801 173.3663,89.2081 173.2703,89.4331 C173.1743,89.6241 173.0783,89.8811 173.0463,90.1691 L172.2463,90.1691 C172.2783,89.7521 172.3743,89.4331 172.5023,89.1441 C172.6623,88.8561 172.8543,88.6321 173.1103,88.4401 C173.3663,88.2481 173.6543,88.1201 173.9753,88.0561 C174.2953,87.9921 174.6463,87.9281 174.9993,87.9281 C175.3513,87.9281 175.6393,87.9601 175.9593,88.0231 C176.2473,88.0881 176.5033,88.2161 176.7273,88.3761 C176.9513,88.5361 177.1113,88.7601 177.2393,89.0171 C177.3673,89.2721 177.4323,89.6241 177.4323,90.0091 L177.4323,93.6571 C177.4323,93.9451 177.4953,94.1381 177.5923,94.2331 C177.6873,94.3291 177.9113,94.2981 178.2313,94.1701 L178.2313,94.7771 C178.1683,94.7771 178.0713,94.8101 177.9753,94.8421 C177.8483,94.8741 177.7523,94.9051 177.6233,94.9051 C177.4953,94.9051 177.3993,94.9051 177.2713,94.8741 C177.1433,94.8421 177.0473,94.8101 176.9513,94.7461 C176.8883,94.6821 176.8233,94.5861 176.7593,94.5211 C176.7273,94.4261 176.6633,94.3291 176.6633,94.2331 C176.6313,94.1381 176.6313,94.0101 176.6313,93.8821 C176.3113,94.2331 175.9273,94.5211 175.5113,94.7141 C175.0953,94.9051 174.6143,95.0021 174.1353,95.0021 C173.8473,95.0021 173.5593,94.9701 173.2703,94.8741 C172.9823,94.8101 172.7583,94.6821 172.5343,94.5211 C172.3423,94.3611 172.1503,94.1701 172.0543,93.9131 C171.9263,93.6891 171.8623,93.4011 171.8623,93.0491 C171.8623,91.8961 172.6623,91.2251 174.1983,91.0321 L175.3513,90.9041 Z" id="Fill-38" fill="#3E3D3C" mask="url(#mask-2)"></path>
            <path d="M181.2082,94.8418 C181.1122,94.8738 180.9842,94.8738 180.8242,94.9378 C180.6642,94.9698 180.5042,95.0018 180.3122,95.0018 C179.9282,95.0018 179.6402,94.9058 179.4162,94.7138 C179.2242,94.5218 179.0962,94.1698 179.0962,93.6568 L179.0962,88.7288 L178.1362,88.7288 L178.1362,88.0878 L179.0962,88.0878 L179.0962,86.2318 L179.8642,86.2318 L179.8642,88.0878 L181.1122,88.0878 L181.1122,88.7288 L179.8642,88.7288 L179.8642,93.3368 L179.8642,93.7848 C179.8642,93.9128 179.8962,94.0098 179.9282,94.0728 C179.9602,94.1378 180.0242,94.2008 180.1202,94.2338 C180.2162,94.2658 180.3452,94.2978 180.5042,94.2978 C180.6012,94.2978 180.7292,94.2978 180.8242,94.2658 C180.9202,94.2338 181.0492,94.2338 181.1452,94.2008 L181.2082,94.8418 Z" id="Fill-39" fill="#3E3D3C" mask="url(#mask-2)"></path>
            <path d="M181.945,94.81 L182.714,94.81 L182.714,88.088 L181.945,88.088 L181.945,94.81 Z M181.881,86.615 L182.745,86.615 L182.745,85.463 L181.881,85.463 L181.881,86.615 Z" id="Fill-40" fill="#3E3D3C" mask="url(#mask-2)"></path>
            <path d="M188.9865,91.4492 C188.9865,91.0332 188.9545,90.6802 188.8585,90.3282 C188.7625,89.9762 188.6345,89.6882 188.4425,89.4322 C188.2505,89.1762 188.0265,88.9842 187.7385,88.8242 C187.4505,88.6642 187.0975,88.5992 186.6815,88.5992 C186.2655,88.5992 185.9145,88.6962 185.6265,88.8562 C185.3385,89.0162 185.0815,89.2402 184.9225,89.4962 C184.7295,89.7522 184.6015,90.0722 184.5055,90.3922 C184.4095,90.7452 184.3775,91.0962 184.3775,91.4492 C184.3775,91.8652 184.4415,92.2492 184.5375,92.6012 C184.6335,92.9532 184.7935,93.2412 184.9855,93.4972 C185.1775,93.7542 185.4015,93.9452 185.6895,94.0732 C185.9775,94.2012 186.2985,94.2652 186.6815,94.2652 C187.0975,94.2652 187.4505,94.2012 187.7385,94.0102 C188.0265,93.8492 188.2505,93.6252 188.4425,93.3692 C188.6345,93.1132 188.7625,92.7932 188.8265,92.4722 C188.9545,92.1532 189.0185,91.8012 188.9865,91.4492 M186.7145,94.9702 C186.2985,94.9702 185.8825,94.8742 185.4985,94.7462 C185.1135,94.5862 184.7935,94.3932 184.5055,94.0732 C184.2165,93.7852 183.9935,93.4012 183.8335,92.9852 C183.6735,92.5372 183.5775,92.0252 183.5775,91.4492 C183.5775,90.9692 183.6415,90.4882 183.7695,90.0722 C183.8975,89.6562 184.0895,89.2722 184.3455,88.9522 C184.6015,88.6322 184.9225,88.3762 185.3055,88.1832 C185.6895,87.9922 186.1375,87.8952 186.6815,87.8952 C187.2265,87.8952 187.6745,87.9922 188.0585,88.1832 C188.4425,88.3762 188.7625,88.6322 189.0505,88.9202 C189.3065,89.2402 189.4995,89.6242 189.6275,90.0402 C189.7555,90.4882 189.8185,90.9362 189.8185,91.4492 C189.8185,91.9932 189.7555,92.4722 189.5945,92.8892 C189.4345,93.3372 189.2425,93.6892 188.9545,94.0102 C188.6665,94.3302 188.3465,94.5532 187.9625,94.7462 C187.6105,94.9062 187.1945,94.9702 186.7145,94.9702" id="Fill-41" fill="#3E3D3C" mask="url(#mask-2)"></path>
            <path d="M191.3879,94.8096 L190.6189,94.8096 L190.6189,88.0876 L191.3879,88.0876 L191.3879,89.0166 C191.7069,88.6966 192.0279,88.4086 192.3479,88.2156 C192.6679,88.0236 193.0839,87.8956 193.5639,87.8956 C193.9799,87.8956 194.3649,87.9596 194.7159,88.1206 C195.0689,88.2476 195.3569,88.5036 195.6129,88.8566 C195.7729,89.1126 195.8679,89.3356 195.9009,89.5926 C195.9329,89.8486 195.9329,90.1046 195.9329,90.3926 L195.9329,94.8096 L195.1639,94.8096 L195.1639,90.4246 C195.1639,89.8166 195.0359,89.3686 194.7479,89.0476 C194.4919,88.7596 194.0439,88.5996 193.4039,88.5996 C193.1479,88.5996 192.9239,88.6316 192.7319,88.7286 C192.5389,88.7916 192.3479,88.8876 192.1879,89.0166 C192.0279,89.1446 191.8999,89.2726 191.7719,89.4326 C191.6759,89.5926 191.5789,89.7516 191.5159,89.9126 C191.4509,90.1366 191.3879,90.3286 191.3879,90.5526 C191.3879,90.7456 191.3559,90.9686 191.3559,91.1926 L191.3879,94.8096 Z" id="Fill-42" fill="#3E3D3C" mask="url(#mask-2)"></path>
            <path d="M197.6613,92.665 C197.7893,93.241 198.0133,93.657 198.3333,93.882 C198.6533,94.105 199.1013,94.233 199.6783,94.233 C199.9663,94.233 200.2223,94.201 200.4143,94.138 C200.6053,94.073 200.7983,93.977 200.9263,93.85 C201.0543,93.722 201.1493,93.594 201.2463,93.466 C201.3093,93.306 201.3423,93.178 201.3423,92.985 C201.3423,92.665 201.2463,92.409 201.0213,92.249 C200.7983,92.089 200.5423,91.961 200.2223,91.865 C199.9013,91.769 199.5503,91.705 199.1653,91.641 C198.7813,91.577 198.4613,91.48 198.1093,91.353 C197.7893,91.225 197.5333,91.033 197.3083,90.809 C197.0853,90.553 196.9883,90.232 196.9883,89.784 C196.9883,89.208 197.1813,88.76 197.5973,88.408 C198.0133,88.056 198.5893,87.864 199.3253,87.864 C200.0613,87.864 200.6383,88.023 201.0863,88.344 C201.5343,88.664 201.8223,89.208 201.9183,89.977 L201.1183,89.977 C201.0543,89.464 200.8613,89.08 200.5423,88.888 C200.2223,88.664 199.8063,88.568 199.3253,88.568 C198.8133,88.568 198.4613,88.664 198.2053,88.888 C197.9493,89.112 197.8213,89.368 197.8213,89.721 C197.8213,90.009 197.9173,90.265 198.1403,90.425 C198.3653,90.585 198.6213,90.713 198.9413,90.809 C199.2623,90.904 199.6133,91.001 199.9983,91.064 C200.3823,91.129 200.7023,91.257 201.0213,91.385 C201.3423,91.513 201.5983,91.705 201.8223,91.961 C202.0463,92.217 202.1423,92.537 202.1423,92.985 C202.1423,93.306 202.0783,93.594 201.9503,93.85 C201.8223,94.105 201.6303,94.298 201.3743,94.458 C201.1183,94.618 200.8623,94.746 200.5103,94.842 C200.1893,94.937 199.8063,94.97 199.4223,94.97 C199.0373,94.97 198.6853,94.906 198.3653,94.81 C198.0453,94.682 197.7893,94.521 197.5643,94.33 C197.3413,94.105 197.1813,93.882 197.0533,93.594 C196.9253,93.306 196.8603,93.018 196.8293,92.697 L197.6613,92.665 Z" id="Fill-43" fill="#3E3D3C" mask="url(#mask-2)"></path>
            <path d="M212.7688,88.1201 C212.5778,87.3191 212.2568,86.7431 211.7458,86.4241 C211.2328,86.0711 210.5928,85.9111 209.7918,85.9111 C209.2158,85.9111 208.7368,86.0391 208.3518,86.2641 C207.9358,86.4871 207.6158,86.8081 207.3598,87.1601 C207.1038,87.5441 206.9118,87.9921 206.7838,88.4721 C206.6558,88.9841 206.5918,89.4961 206.5918,90.0401 C206.5918,90.5531 206.6558,91.0641 206.7508,91.5771 C206.8478,92.0891 207.0398,92.5371 207.2958,92.9211 C207.5518,93.3061 207.9038,93.6251 208.3208,93.8821 C208.7368,94.1381 209.2808,94.2331 209.9198,94.2331 C210.3048,94.2331 210.6888,94.1701 211.0088,94.0421 C211.3298,93.9131 211.6178,93.7221 211.8728,93.4971 C212.1288,93.2731 212.3218,92.9851 212.4818,92.6971 C212.6408,92.3771 212.7698,92.0571 212.8658,91.6731 L213.7928,91.6731 C213.6978,92.1211 213.5378,92.5371 213.3458,92.9531 C213.1538,93.3691 212.8978,93.7221 212.5778,94.0101 C212.2568,94.3301 211.8728,94.5541 211.3928,94.7461 C210.9128,94.9371 210.4008,95.0021 209.7608,95.0021 C209.0248,95.0021 208.4158,94.8741 207.9038,94.6171 C207.3918,94.3611 206.9758,94.0101 206.6558,93.5611 C206.3348,93.1131 206.0798,92.6011 205.9518,91.9931 C205.7908,91.3851 205.7278,90.7761 205.7278,90.1041 C205.7278,89.2081 205.8238,88.4401 206.0468,87.8321 C206.2718,87.2241 206.5598,86.7121 206.9758,86.2961 C207.3598,85.9111 207.8078,85.6231 208.3518,85.4321 C208.8648,85.2391 209.4408,85.1751 210.0808,85.1751 C210.5608,85.1751 211.0088,85.2391 211.3928,85.3671 C211.8088,85.4951 212.1618,85.6871 212.4818,85.9431 C212.8008,86.1991 213.0578,86.4871 213.2818,86.8711 C213.4738,87.2241 213.6338,87.6721 213.6978,88.1521 L212.7688,88.1201 Z" id="Fill-44" fill="#3E3D3C" mask="url(#mask-2)"></path>
            <path d="M219.6194,90.9043 C219.6194,90.5853 219.5554,90.2643 219.4914,89.9763 C219.3944,89.6883 219.2664,89.4323 219.0754,89.2083 C218.8834,88.9843 218.6584,88.8243 218.4024,88.6963 C218.1464,88.5683 217.8264,88.5043 217.4744,88.5043 C217.1224,88.5043 216.8344,88.5683 216.5464,88.6963 C216.2904,88.8243 216.0664,89.0163 215.8744,89.2083 C215.6814,89.4323 215.5214,89.6883 215.4264,89.9763 C215.2984,90.2643 215.2334,90.5523 215.2024,90.8733 L219.6194,90.9043 Z M215.2334,91.5773 C215.2334,91.9283 215.2654,92.2813 215.3614,92.6013 C215.4584,92.9213 215.5864,93.2093 215.7784,93.4333 C215.9704,93.6573 216.1944,93.8493 216.4824,94.0093 C216.7704,94.1373 217.0904,94.2333 217.4744,94.2333 C217.9864,94.2333 218.4344,94.1053 218.7874,93.8173 C219.1394,93.5613 219.3944,93.1773 219.5224,92.6653 L220.3874,92.6653 C220.2914,92.9853 220.1634,93.2733 220.0034,93.5613 C219.8434,93.8493 219.6514,94.0733 219.4274,94.2653 C219.2034,94.4583 218.9154,94.6183 218.5954,94.7463 C218.2744,94.8423 217.8904,94.9063 217.4744,94.9063 C216.9304,94.9063 216.4824,94.8093 216.0664,94.6493 C215.6814,94.4583 215.3614,94.2333 215.1054,93.9133 C214.8494,93.5933 214.6574,93.2413 214.5614,92.7933 C214.4334,92.3773 214.3694,91.8973 214.3694,91.4173 C214.3694,90.9363 214.4334,90.4573 214.5944,90.0403 C214.7544,89.6243 214.9454,89.2403 215.2024,88.9203 C215.4584,88.5993 215.7784,88.3433 216.1624,88.1523 C216.5464,87.9603 216.9624,87.8643 217.4744,87.8643 C218.4024,87.8643 219.1394,88.1833 219.6514,88.8243 C220.1954,89.4643 220.4514,90.3923 220.4514,91.6093 L215.2334,91.5773 Z" id="Fill-45" fill="#3E3D3C" mask="url(#mask-2)"></path>
            <path d="M222.0842,94.7461 L221.3152,94.7461 L221.3152,88.0231 L222.0842,88.0231 L222.0842,88.9521 C222.4032,88.6321 222.7242,88.3441 223.0442,88.1521 C223.3642,87.9601 223.7802,87.8321 224.2602,87.8321 C224.6762,87.8321 225.0612,87.8951 225.4122,88.0561 C225.7652,88.2161 226.0532,88.4401 226.3092,88.7921 C226.4692,89.0481 226.5642,89.2721 226.5972,89.5281 C226.6292,89.7841 226.6292,90.0401 226.6292,90.3281 L226.6292,94.7461 L225.8602,94.7461 L225.8602,90.3601 C225.8602,89.7521 225.7322,89.3051 225.4442,88.9841 C225.1882,88.6961 224.7402,88.5361 224.1002,88.5361 C223.8442,88.5361 223.6522,88.5681 223.4282,88.6641 C223.2362,88.7281 223.0442,88.8241 222.8842,88.9521 C222.7242,89.0801 222.5962,89.2081 222.4682,89.3681 C222.3402,89.5281 222.2752,89.6881 222.2122,89.8491 C222.1472,90.0721 222.0842,90.2651 222.0842,90.4571 C222.0522,90.6481 222.0522,90.8731 222.0522,91.0971 L222.0842,94.7461 Z" id="Fill-46" fill="#3E3D3C" mask="url(#mask-2)"></path>
            <path d="M230.2463,94.7461 C230.1493,94.7771 230.0213,94.8091 229.8613,94.8421 C229.7013,94.8741 229.5423,94.9061 229.3503,94.9061 C228.9663,94.9061 228.6783,94.8091 228.4533,94.6181 C228.2623,94.4261 228.1653,94.0731 228.1333,93.5611 L228.1333,88.6321 L227.1733,88.6321 L227.1733,87.9921 L228.1333,87.9921 L228.1333,86.1361 L228.9013,86.1361 L228.9013,87.9921 L230.1493,87.9921 L230.1493,88.6321 L228.9013,88.6321 L228.9013,93.2411 L228.9013,93.6571 C228.9013,93.7851 228.9343,93.8821 228.9663,93.9451 C228.9973,94.0101 229.0613,94.0731 229.1573,94.1051 C229.2543,94.1381 229.3823,94.1701 229.5423,94.1701 C229.6383,94.1701 229.7663,94.1701 229.8613,94.1381 C229.9583,94.1051 230.0863,94.1051 230.1823,94.0731 L230.2463,94.7461 Z" id="Fill-47" fill="#3E3D3C" mask="url(#mask-2)"></path>
            <path d="M235.7199,90.873 C235.7199,90.553 235.6559,90.232 235.5909,89.944 C235.4949,89.656 235.3669,89.4 235.1749,89.176 C234.9839,88.952 234.7589,88.792 234.5029,88.664 C234.2469,88.536 233.9269,88.472 233.5739,88.472 C233.2229,88.472 232.9349,88.536 232.6469,88.664 C232.3909,88.792 232.1659,88.984 231.9749,89.176 C231.7819,89.4 231.6549,89.624 231.5269,89.944 C231.4299,90.232 231.3339,90.52 231.3019,90.841 L235.7199,90.873 Z M231.3339,91.545 C231.3339,91.896 231.3989,92.249 231.4939,92.569 C231.5899,92.89 231.7179,93.178 231.9099,93.401 C232.1029,93.625 232.3259,93.817 232.6149,93.977 C232.9029,94.105 233.2229,94.201 233.6069,94.201 C234.1189,94.201 234.5679,94.073 234.9189,93.785 C235.2719,93.529 235.5279,93.145 235.6559,92.633 L236.5199,92.633 C236.4239,92.953 236.2949,93.241 236.1359,93.529 C235.9759,93.817 235.7829,94.042 235.5599,94.233 C235.3349,94.426 235.0469,94.586 234.7269,94.714 C234.4079,94.842 234.0229,94.874 233.6069,94.874 C233.0629,94.874 232.6149,94.777 232.2309,94.618 C231.8469,94.426 231.5269,94.201 231.2709,93.882 C231.0139,93.561 230.8229,93.178 230.6949,92.761 C230.5659,92.345 230.5019,91.865 230.5019,91.385 C230.5019,90.904 230.5659,90.425 230.7259,90.009 C230.8539,89.561 231.0779,89.208 231.3339,88.856 C231.5899,88.536 231.9099,88.28 232.2939,88.088 C232.6789,87.895 233.0949,87.8 233.6069,87.8 C234.5349,87.8 235.2719,88.12 235.7829,88.76 C236.3269,89.4 236.5839,90.328 236.5839,91.545 L231.3339,91.545 Z" id="Fill-48" fill="#3E3D3C" mask="url(#mask-2)"></path>
            <path d="M238.2483,94.7139 L237.4793,94.7139 L237.4793,87.9919 L238.2483,87.9919 L238.2483,89.2399 L238.2803,89.2399 C238.5043,88.6959 238.7923,88.3439 239.1123,88.1199 C239.4643,87.8959 239.9123,87.7999 240.4563,87.7999 L240.4563,88.6319 C240.0093,88.6319 239.6563,88.6959 239.3683,88.8569 C239.0803,89.0169 238.8563,89.2079 238.6963,89.4639 C238.5363,89.7209 238.4083,90.0089 238.3443,90.3599 C238.2803,90.7129 238.2483,91.0649 238.2483,91.4169 L238.2483,94.7139 Z" id="Fill-49" fill="#3E3D3C" mask="url(#mask-2)"></path>
        </g>
    </g>
</svg>